<svg width="211" height="211" viewBox="0 0 211 211" fill="none" xmlns="http://www.w3.org/2000/svg">
<rect width="211" height="211" fill="#545D75"/>
<path d="M187.5 112.514C183.089 112.514 179.514 116.089 179.514 120.5C179.514 124.911 183.089 128.486 187.5 128.486C191.91 128.486 195.486 124.911 195.486 120.5C195.481 116.091 191.908 112.519 187.5 112.514Z" fill="#FCEA2B"/>
<path d="M190.451 125.108H184.549C183.782 125.106 183.162 124.485 183.16 123.719C183.162 122.953 183.782 122.332 184.549 122.33H190.451C191.217 122.332 191.838 122.953 191.84 123.719C191.838 124.485 191.217 125.106 190.451 125.108Z" fill="white"/>
<path d="M184.722 122.504V124.934" stroke="black" stroke-width="2" stroke-linecap="round" stroke-linejoin="round"/>
<path d="M186.458 122.504V124.934" stroke="black" stroke-width="2" stroke-linecap="round" stroke-linejoin="round"/>
<path d="M188.194 122.504V124.934" stroke="black" stroke-width="2" stroke-linecap="round" stroke-linejoin="round"/>
<path d="M189.93 122.504V124.934" stroke="black" stroke-width="2" stroke-linecap="round" stroke-linejoin="round"/>
<path d="M187.5 128.486C191.91 128.486 195.486 124.911 195.486 120.5C195.486 116.089 191.91 112.514 187.5 112.514C183.089 112.514 179.514 116.089 179.514 120.5C179.514 124.911 183.089 128.486 187.5 128.486Z" stroke="black" stroke-width="2" stroke-miterlimit="10"/>
<path d="M190.451 125.108H184.549C183.782 125.106 183.162 124.485 183.16 123.719C183.162 122.953 183.782 122.332 184.549 122.33H190.451C191.217 122.332 191.838 122.953 191.84 123.719C191.838 124.485 191.217 125.106 190.451 125.108Z" stroke="black" stroke-width="2" stroke-miterlimit="2"/>
<path d="M185.416 118.764C185.416 119.339 184.949 119.806 184.375 119.806C183.8 119.806 183.333 119.339 183.333 118.764C183.333 118.189 183.8 117.722 184.375 117.722C184.949 117.722 185.416 118.189 185.416 118.764Z" fill="black"/>
<path d="M191.666 118.764C191.666 119.339 191.199 119.806 190.625 119.806C190.05 119.806 189.583 119.339 189.583 118.764C189.583 118.189 190.05 117.722 190.625 117.722C191.199 117.722 191.666 118.189 191.666 118.764Z" fill="black"/>
<path d="M82.5 22.125C74.5736 22.125 68.125 28.5736 68.125 36.5C68.125 44.4264 74.5736 50.875 82.5 50.875C90.4264 50.875 96.875 44.4264 96.875 36.5C96.875 28.5736 90.4264 22.125 82.5 22.125Z" fill="#E27022"/>
<path d="M82.5 50.875C90.4391 50.875 96.875 44.4391 96.875 36.5C96.875 28.5609 90.4391 22.125 82.5 22.125C74.5609 22.125 68.125 28.5609 68.125 36.5C68.125 44.4391 74.5609 50.875 82.5 50.875Z" stroke="black" stroke-width="2" stroke-miterlimit="10"/>
<path d="M77.5 42.75C78.4878 41.1516 80.5652 40.1657 82.7632 40.2476C84.7812 40.3229 86.6014 41.2872 87.5 42.75" stroke="black" stroke-width="2" stroke-miterlimit="10" stroke-linecap="round" stroke-linejoin="round"/>
<path d="M78.75 34.5783C78.75 35.6137 77.9095 36.4533 76.875 36.4533C75.8404 36.4533 75 35.6137 75 34.5783C75 33.5437 75.8404 32.7033 76.875 32.7033C77.9095 32.7033 78.75 33.5438 78.75 34.5783Z" fill="black"/>
<path d="M90 34.5783C90 35.6137 89.1596 36.4533 88.125 36.4533C87.0904 36.4533 86.25 35.6137 86.25 34.5783C86.25 33.5437 87.0904 32.7033 88.125 32.7033C89.1596 32.7033 90 33.5438 90 34.5783Z" fill="black"/>
<path d="M74.375 29L78.75 31.5" stroke="black" stroke-width="2" stroke-miterlimit="10" stroke-linecap="round" stroke-linejoin="round"/>
<path d="M90.625 29L86.25 31.5" stroke="black" stroke-width="2" stroke-miterlimit="10" stroke-linecap="round" stroke-linejoin="round"/>
<path d="M60.1893 184.198C67.2463 184.198 72.9671 178.477 72.9671 171.42C72.9671 164.363 67.2463 158.642 60.1893 158.642C53.1324 158.642 47.4116 164.363 47.4116 171.42C47.4116 178.477 53.1324 184.198 60.1893 184.198Z" fill="#FCEA2B"/>
<path d="M60.1894 184.198C67.2464 184.198 72.9672 178.477 72.9672 171.42C72.9672 164.363 67.2464 158.642 60.1894 158.642C53.1324 158.642 47.4116 164.363 47.4116 171.42C47.4116 178.477 53.1324 184.198 60.1894 184.198Z" stroke="black" stroke-width="2" stroke-linecap="round" stroke-linejoin="round"/>
<path d="M56.8563 168.642C56.8563 168.972 56.7585 169.294 56.5754 169.568C56.3923 169.842 56.132 170.056 55.8274 170.182C55.5229 170.308 55.1878 170.341 54.8645 170.277C54.5412 170.213 54.2442 170.054 54.0111 169.821C53.778 169.588 53.6193 169.291 53.555 168.967C53.4907 168.644 53.5237 168.309 53.6498 168.004C53.776 167.7 53.9896 167.44 54.2637 167.256C54.5377 167.073 54.86 166.976 55.1896 166.976C55.6316 166.976 56.0554 167.151 56.3679 167.464C56.6805 167.776 56.8561 168.2 56.8563 168.642Z" fill="black"/>
<path d="M66.8563 168.642C66.8563 168.972 66.7585 169.294 66.5754 169.568C66.3923 169.842 66.132 170.056 65.8274 170.182C65.5229 170.308 65.1878 170.341 64.8645 170.277C64.5412 170.213 64.2442 170.054 64.0111 169.821C63.778 169.588 63.6193 169.291 63.555 168.967C63.4907 168.644 63.5237 168.309 63.6498 168.004C63.776 167.7 63.9896 167.44 64.2637 167.256C64.5377 167.073 64.86 166.976 65.1896 166.976C65.6316 166.976 66.0554 167.151 66.368 167.464C66.6805 167.776 66.8561 168.2 66.8563 168.642Z" fill="black"/>
<path d="M54.4443 177.667C59.9999 174.889 66.111 175.428 66.111 175.428" stroke="black" stroke-width="2" stroke-linecap="round" stroke-linejoin="round"/>
<path d="M25.0001 76.9722C33.8213 76.9722 40.9723 69.8212 40.9723 61C40.9723 52.1788 33.8213 45.0278 25.0001 45.0278C16.1788 45.0278 9.02783 52.1788 9.02783 61C9.02783 69.8212 16.1788 76.9722 25.0001 76.9722Z" fill="#FCEA2B"/>
<path d="M25.0001 76.9722C33.8213 76.9722 40.9723 69.8212 40.9723 61C40.9723 52.1788 33.8213 45.0278 25.0001 45.0278C16.1788 45.0278 9.02783 52.1788 9.02783 61C9.02783 69.8212 16.1788 76.9722 25.0001 76.9722Z" fill="#FCEA2B"/>
<path d="M25.0001 76.9722C33.8213 76.9722 40.9723 69.8212 40.9723 61C40.9723 52.1788 33.8213 45.0278 25.0001 45.0278C16.1788 45.0278 9.02783 52.1788 9.02783 61C9.02783 69.8212 16.1788 76.9722 25.0001 76.9722Z" stroke="black" stroke-width="2" stroke-miterlimit="10" stroke-linecap="round" stroke-linejoin="round"/>
<path d="M31.8157 67.1149C27.7523 70.3846 22.0237 70.3703 18.1841 67.1149" stroke="black" stroke-width="2" stroke-miterlimit="10" stroke-linecap="round" stroke-linejoin="round"/>
<path d="M27.9902 57.2467C28.7262 58.9032 30.6657 59.6494 32.3222 58.9135C33.065 58.5835 33.6589 57.9895 33.989 57.2467" stroke="black" stroke-width="2" stroke-miterlimit="10" stroke-linecap="round"/>
<path d="M16.0112 57.2467C16.7472 58.9032 18.6867 59.6494 20.3432 58.9135C21.086 58.5835 21.6799 57.9895 22.01 57.2467" stroke="black" stroke-width="2" stroke-miterlimit="10" stroke-linecap="round"/>
<path d="M15.1729 54.8506C15.7604 53.7209 16.7444 52.8499 17.937 52.4049C19.0826 51.8341 20.3994 51.7131 21.6301 52.0618" stroke="black" stroke-width="2" stroke-miterlimit="10" stroke-linecap="round" stroke-linejoin="round"/>
<path d="M35.9604 54.8506C34.6707 52.5904 32.0444 51.4512 29.5127 52.0539" stroke="black" stroke-width="2" stroke-miterlimit="10" stroke-linecap="round" stroke-linejoin="round"/>
<path d="M164 43.6667C173.205 43.6667 180.667 36.2047 180.667 27C180.667 17.7953 173.205 10.3333 164 10.3333C154.795 10.3333 147.333 17.7953 147.333 27C147.333 36.2047 154.795 43.6667 164 43.6667Z" fill="#FCEA2B"/>
<path d="M165.372 20.5549C170.083 20.7265 174.983 21.1413 179.049 22.0435L179.198 22.0748C177.122 15.6635 171.102 11.0278 164 11.0278C155.178 11.0278 148.028 18.1784 148.028 27C148.028 29.0011 148.396 30.9163 149.068 32.6815L149.067 32.6799C149.067 32.6799 151.699 30.0133 155.977 26.7424C156.817 26.0966 157.727 25.4299 158.692 24.7563C160.699 23.3397 162.949 21.8952 165.372 20.5549Z" fill="white"/>
<path d="M170.192 20.8258C170.581 21.4994 171.15 22.0619 171.845 22.4508C172.741 23.0688 173.838 23.3327 174.921 23.1938" stroke="black" stroke-width="2" stroke-miterlimit="10" stroke-linecap="round" stroke-linejoin="round"/>
<path d="M172.333 26.3056C172.333 27.4561 171.399 28.3889 170.25 28.3889C169.1 28.3889 168.167 27.456 168.167 26.3056C168.167 25.1561 169.1 24.2222 170.25 24.2222C171.399 24.2222 172.333 25.1561 172.333 26.3056Z" fill="black"/>
<path d="M161.992 34.561C161.992 34.561 165.973 33.819 170.091 36.0154" stroke="black" stroke-width="2" stroke-miterlimit="10" stroke-linecap="round" stroke-linejoin="round"/>
<path d="M149.067 32.6799C149.067 32.6799 151.699 30.0133 155.977 26.7424C156.817 26.0966 157.727 25.4299 158.692 24.7563C160.699 23.3397 162.949 21.8952 165.372 20.5549" stroke="black" stroke-width="2" stroke-miterlimit="10" stroke-linecap="round" stroke-linejoin="round"/>
<path d="M158.931 24.5919C158.853 24.6466 158.769 24.7017 158.692 24.7563C157.727 25.4299 156.817 26.0966 155.977 26.7424C155.904 26.7976 155.836 26.8512 155.765 26.9061C156.024 27.7617 156.81 28.3889 157.75 28.3889C158.899 28.3889 159.833 27.4561 159.833 26.3056C159.833 25.5949 159.475 24.9681 158.931 24.5919Z" fill="black"/>
<path d="M179.049 22.0435C167.979 19.5868 149.918 20.6983 149.918 20.6983" stroke="black" stroke-width="2" stroke-miterlimit="10" stroke-linecap="round" stroke-linejoin="round"/>
<path d="M152.448 16.0831C152.448 16.0831 167.437 15.0036 176.722 17.4603" stroke="black" stroke-width="2" stroke-miterlimit="10" stroke-linecap="round" stroke-linejoin="round"/>
<path d="M179.198 22.0748C177.122 15.6635 171.102 11.0278 164 11.0278C155.178 11.0278 148.028 18.1784 148.028 27C148.028 29.0011 148.396 30.9163 149.068 32.6815" stroke="black" stroke-width="2" stroke-miterlimit="10" stroke-linecap="round" stroke-linejoin="round"/>
<path d="M150.17 34.9955C152.933 39.7644 158.092 42.9722 164 42.9722C172.821 42.9722 179.972 35.821 179.972 27C179.972 26.1368 179.904 25.2897 179.772 24.4635" stroke="black" stroke-width="2" stroke-miterlimit="10" stroke-linecap="round" stroke-linejoin="round"/>
<path d="M114.001 200.583C119.294 200.583 123.585 196.293 123.585 191C123.585 185.707 119.294 181.417 114.001 181.417C108.709 181.417 104.418 185.707 104.418 191C104.418 196.293 108.709 200.583 114.001 200.583Z" fill="#B1CC33"/>
<path d="M110.361 185.319C110.262 185.963 109.928 186.545 109.424 186.956C108.963 187.42 108.345 187.695 107.692 187.728" stroke="black" stroke-width="2" stroke-miterlimit="10" stroke-linecap="round" stroke-linejoin="round"/>
<path d="M117.639 185.319C117.738 185.963 118.072 186.545 118.576 186.956C119.037 187.42 119.655 187.695 120.308 187.728" stroke="black" stroke-width="2" stroke-miterlimit="10" stroke-linecap="round" stroke-linejoin="round"/>
<path d="M114.001 200.583C119.294 200.583 123.585 196.293 123.585 191C123.585 185.707 119.294 181.417 114.001 181.417C108.709 181.417 104.418 185.707 104.418 191C104.418 196.293 108.709 200.583 114.001 200.583Z" stroke="black" stroke-width="2" stroke-miterlimit="10" stroke-linecap="round" stroke-linejoin="round"/>
<path d="M111.518 195.174C112.053 194.833 113.13 194.742 114 194.742C114.87 194.742 115.947 194.833 116.482 195.174" stroke="black" stroke-width="2" stroke-miterlimit="10" stroke-linecap="round" stroke-linejoin="round"/>
<path d="M110.946 193.849C111.709 194.545 111.709 195.614 110.946 196.343" stroke="black" stroke-width="2" stroke-miterlimit="10" stroke-linecap="round" stroke-linejoin="round"/>
<path d="M117.055 193.849C116.291 194.545 116.291 195.614 117.055 196.343" stroke="black" stroke-width="2" stroke-miterlimit="10" stroke-linecap="round" stroke-linejoin="round"/>
<path d="M111.5 189.75C111.5 190.44 110.94 191 110.25 191C109.56 191 109 190.44 109 189.75C109 189.06 109.56 188.5 110.25 188.5C110.94 188.5 111.5 189.06 111.5 189.75Z" fill="black"/>
<path d="M119 189.75C119 190.44 118.44 191 117.75 191C117.06 191 116.5 190.44 116.5 189.75C116.5 189.06 117.06 188.5 117.75 188.5C118.44 188.5 119 189.06 119 189.75Z" fill="black"/>
<path d="M162 150.028C153.193 150.028 146.028 157.193 146.028 166C146.028 174.807 153.193 181.972 162 181.972C170.807 181.972 177.972 174.807 177.972 166C177.972 157.193 170.807 150.028 162 150.028Z" fill="#FCEA2B"/>
<path d="M162 181.972C170.821 181.972 177.972 174.821 177.972 166C177.972 157.179 170.821 150.028 162 150.028C153.179 150.028 146.028 157.179 146.028 166C146.028 174.821 153.179 181.972 162 181.972Z" stroke="black" stroke-width="2" stroke-miterlimit="10"/>
<path d="M157.833 162.528C157.833 163.678 156.899 164.611 155.75 164.611C154.6 164.611 153.667 163.678 153.667 162.528C153.667 161.378 154.6 160.444 155.75 160.444C156.899 160.444 157.833 161.378 157.833 162.528Z" fill="black"/>
<path d="M170.333 162.528C170.333 163.678 169.399 164.611 168.25 164.611C167.1 164.611 166.167 163.678 166.167 162.528C166.167 161.378 167.1 160.444 168.25 160.444C169.399 160.444 170.333 161.378 170.333 162.528Z" fill="black"/>
<path d="M156.444 172.944C157.542 171.168 159.85 170.073 162.292 170.164C164.535 170.248 166.557 171.319 167.555 172.944" stroke="black" stroke-width="2" stroke-miterlimit="10" stroke-linecap="round" stroke-linejoin="round"/>
<path d="M174.988 70.8993C174.105 70.8928 173.232 71.0786 172.429 71.4438C171.625 71.809 170.911 72.3448 170.336 73.0139C169.761 73.6831 169.339 74.4695 169.098 75.3185C168.858 76.1674 168.805 77.0586 168.944 77.93C169.169 77.7745 169.436 77.6892 169.71 77.6848C169.983 77.6803 170.252 77.7553 170.483 77.9008C170.714 78.0462 170.898 78.2558 171.012 78.504C171.429 77.5026 171.92 76.5337 172.481 75.6052C172.614 75.3121 172.82 75.0579 173.079 74.867C173.338 74.6761 173.642 74.5548 173.962 74.5147C174.248 74.5048 174.529 74.5839 174.768 74.741C175.451 73.8626 176.232 73.8021 176.787 74.0829C177.062 74.2371 177.293 74.4588 177.459 74.727C177.625 74.9953 177.72 75.3013 177.734 75.6162C177.893 75.6273 178.049 75.6651 178.196 75.7279C178.447 75.826 178.662 76.0007 178.809 76.2274C178.956 76.454 179.028 76.7211 179.015 76.991C179.009 77.4736 178.895 77.9486 178.682 78.3815C178.819 78.502 178.932 78.6471 179.015 78.8093C179.168 79.1313 179.242 79.4853 179.23 79.8417C179.219 80.198 179.122 80.5464 178.949 80.8579L178.475 81.7536C178.435 81.8738 178.403 81.9938 178.369 82.1139C179.465 81.3877 180.297 80.328 180.743 79.0916C181.189 77.8553 181.225 76.5082 180.846 75.2498C180.466 73.9915 179.692 72.8888 178.637 72.1052C177.581 71.3215 176.302 70.8988 174.988 70.8993Z" fill="black"/>
<path d="M175.003 86.8993C182.336 86.8993 188.281 80.9546 188.281 73.6213C188.281 66.2881 182.336 60.3433 175.003 60.3433C167.669 60.3433 161.725 66.2881 161.725 73.6213C161.725 80.9546 167.669 86.8993 175.003 86.8993Z" fill="#FCEA2B"/>
<path d="M174.78 90.8712C174.768 90.8712 174.755 90.8707 174.742 90.8696L169.354 90.4811C169.279 90.4757 169.206 90.4545 169.141 90.4189C169.075 90.3832 169.017 90.334 168.972 90.2744C168.926 90.2148 168.894 90.1463 168.877 90.0733C168.861 90.0004 168.86 89.9247 168.874 89.8512C169.173 88.3554 169.424 87.2351 169.558 86.6334L169.558 86.6324C169.473 86.4577 169.388 86.2765 169.303 86.0958C169.193 85.8636 169.084 85.6314 168.975 85.4125C168.86 85.1841 168.622 84.7077 168.254 80.6125C168.142 79.4916 168.17 78.6792 168.657 78.1109C168.784 77.9499 168.947 77.8196 169.132 77.7299C169.316 77.6402 169.519 77.5934 169.725 77.5928C169.998 77.5883 170.266 77.6633 170.498 77.8088C170.729 77.9542 170.913 78.1638 171.027 78.412C171.444 77.4106 171.935 76.4417 172.496 75.5132C172.629 75.2201 172.835 74.9659 173.094 74.775C173.353 74.5841 173.657 74.4628 173.976 74.4227C174.262 74.4128 174.544 74.4919 174.783 74.6489C175.466 73.7706 176.246 73.7101 176.802 73.9909C177.077 74.1451 177.308 74.3668 177.474 74.635C177.64 74.9033 177.734 75.2093 177.749 75.5242C177.908 75.5353 178.064 75.5731 178.21 75.636C178.462 75.734 178.677 75.9087 178.824 76.1354C178.971 76.362 179.043 76.6292 179.03 76.8991C179.024 77.3816 178.91 77.8567 178.696 78.2896C178.833 78.41 178.947 78.5551 179.03 78.7173C179.183 79.0394 179.257 79.3934 179.245 79.7497C179.234 80.1061 179.137 80.4545 178.963 80.7659L178.49 81.6617C178.37 82.0273 178.28 82.3941 178.193 82.75L178.126 83.0267C177.881 84.2989 177.432 85.5234 176.798 86.653C176.582 87.0818 176.274 87.4571 175.895 87.7516C175.857 87.7885 175.821 87.8227 175.787 87.8552C175.726 87.9054 175.672 87.9628 175.626 88.0261L175.585 88.2724C175.456 88.9682 175.363 89.6703 175.307 90.3758C175.298 90.5099 175.239 90.6356 175.141 90.7276C175.043 90.8195 174.914 90.8707 174.78 90.8707L174.78 90.8712Z" fill="#FCEA2B"/>
<path d="M174.988 70.8993C174.105 70.8928 173.232 71.0786 172.429 71.4438C171.625 71.809 170.911 72.3448 170.336 73.0139C169.761 73.6831 169.339 74.4695 169.098 75.3185C168.858 76.1674 168.805 77.0586 168.944 77.93C169.169 77.7745 169.436 77.6892 169.71 77.6848C169.983 77.6803 170.252 77.7553 170.483 77.9008C170.714 78.0462 170.898 78.2558 171.012 78.504C171.429 77.5026 171.92 76.5337 172.481 75.6052C172.614 75.3121 172.82 75.0579 173.079 74.867C173.338 74.6761 173.642 74.5548 173.962 74.5147C174.248 74.5048 174.529 74.5839 174.768 74.741C175.451 73.8626 176.232 73.8021 176.787 74.0829C177.062 74.2371 177.293 74.4588 177.459 74.727C177.625 74.9953 177.72 75.3013 177.734 75.6162C177.893 75.6273 178.049 75.6651 178.196 75.7279C178.447 75.826 178.662 76.0007 178.809 76.2274C178.956 76.454 179.028 76.7211 179.015 76.991C179.009 77.4736 178.895 77.9486 178.682 78.3815C178.819 78.502 178.932 78.6471 179.015 78.8093C179.168 79.1313 179.242 79.4853 179.23 79.8417C179.219 80.198 179.122 80.5465 178.949 80.8579L178.475 81.7536C178.435 81.8738 178.403 81.9938 178.369 82.1139C179.465 81.3877 180.297 80.328 180.743 79.0916C181.189 77.8553 181.225 76.5082 180.846 75.2498C180.466 73.9915 179.692 72.8888 178.637 72.1052C177.581 71.3215 176.302 70.8988 174.988 70.8993Z" fill="black"/>
<path d="M178.78 85.8436C181.189 85.0936 183.321 83.6468 184.908 81.6859C186.495 79.725 187.466 77.3379 187.697 74.8259C187.929 72.3139 187.411 69.7896 186.209 67.5717C185.007 65.3538 183.175 63.5418 180.944 62.3643C178.713 61.1868 176.183 60.6967 173.674 60.9559C171.164 61.215 168.788 62.2118 166.845 63.8203C164.901 65.4289 163.478 67.5771 162.755 69.9938C162.031 72.4106 162.04 74.9874 162.78 77.3991C163.516 79.7248 164.881 81.8014 166.725 83.3991" stroke="black" stroke-width="2" stroke-linecap="round" stroke-linejoin="round"/>
<path d="M167.836 68.4824C170.28 68.4269 172.225 67.7047 172.725 66.7602" stroke="black" stroke-width="2" stroke-linecap="round" stroke-linejoin="round"/>
<path d="M182.169 68.4824C179.725 68.4269 177.78 67.7047 177.28 66.7602" stroke="black" stroke-width="2" stroke-linecap="round" stroke-linejoin="round"/>
<path d="M169.391 89.9547C169.724 88.288 170.002 87.0658 170.113 86.5658C169.891 86.1213 169.669 85.6213 169.447 85.1769C169.336 84.9547 169.113 84.288 168.78 80.5658C168.669 79.4547 168.724 78.8436 169.058 78.4547C169.137 78.3531 169.238 78.2705 169.354 78.2128C169.469 78.1552 169.596 78.1239 169.724 78.1213C170.447 78.1213 170.669 78.788 170.836 79.4547L170.891 79.6213L171.002 79.9547C171.503 78.5015 172.154 77.1049 172.947 75.788C173.947 74.1213 174.891 75.4547 174.891 75.4547C176.113 73.1769 177.669 75.0102 177.113 76.1769C177.249 76.1062 177.399 76.0647 177.552 76.0552C177.705 76.0456 177.858 76.0681 178.002 76.1213C178.157 76.1816 178.289 76.2893 178.379 76.429C178.468 76.5687 178.512 76.7333 178.502 76.8991C178.486 77.4545 178.313 77.9939 178.002 78.4547C178.235 78.5589 178.43 78.7338 178.558 78.9547C178.672 79.1998 178.727 79.4687 178.717 79.7391C178.708 80.0096 178.634 80.2738 178.502 80.5102L178.002 81.4547C177.836 81.9547 177.724 82.4547 177.613 82.8991C177.38 84.1273 176.948 85.3093 176.336 86.3991C176.154 86.7706 175.888 87.0941 175.558 87.3436C175.336 87.5658 175.169 87.6769 175.113 87.8991C174.96 88.7076 174.849 89.5235 174.78 90.3436" stroke="black" stroke-width="2" stroke-linecap="round" stroke-linejoin="round"/>
<path d="M169.579 78.1363C169.357 77.1417 169.413 76.1054 169.741 75.1406C170.069 74.1758 170.656 73.3197 171.437 72.6659C172.219 72.0122 173.165 71.5859 174.172 71.4338C175.18 71.2817 176.21 71.4096 177.15 71.8034C178.089 72.1973 178.903 72.8421 179.501 73.6671C180.099 74.4921 180.458 75.4657 180.54 76.4814C180.622 77.497 180.423 78.5156 179.965 79.4258C179.507 80.3359 178.807 81.1026 177.942 81.6418" stroke="black" stroke-width="2" stroke-linecap="round" stroke-linejoin="round"/>
<path d="M14 226C27.2548 226 38 215.255 38 202C38 188.745 27.2548 178 14 178C0.745166 178 -10 188.745 -10 202C-10 215.255 0.745166 226 14 226Z" fill="#FCEA2B"/>
<path d="M8.49802 219.374C4.20202 217.884 2.03662 214.573 2.03662 210.69H2.13052C2.13052 210.69 14.268 213.753 25.8135 210.756L25.9741 210.69C26.0075 212.642 25.3973 214.55 24.2377 216.119C23.0781 217.689 21.4338 218.833 19.5589 219.375" fill="white"/>
<path d="M8.49802 219.374C4.20202 217.884 2.03662 214.573 2.03662 210.69H2.13052C2.13052 210.69 14.268 213.753 25.8135 210.756L25.9741 210.69C26.0075 212.642 25.3973 214.55 24.2377 216.119C23.0781 217.689 21.4338 218.833 19.5589 219.375" stroke="black" stroke-width="2" stroke-linecap="round" stroke-linejoin="round"/>
<path d="M-1.7207 193.2C-1.00077 191.815 0.207391 190.746 1.67 190.2C3.07496 189.501 4.69025 189.351 6.2 189.779" stroke="black" stroke-width="2" stroke-linecap="round" stroke-linejoin="round"/>
<path d="M28.89 193.2C28.1194 191.85 26.9323 190.786 25.5063 190.168C24.0804 189.55 22.4925 189.41 20.9805 189.77" stroke="black" stroke-width="2" stroke-linecap="round" stroke-linejoin="round"/>
<path d="M22.3242 223.447C27.3284 221.505 31.4954 217.873 34.1033 213.181C36.7113 208.489 37.5959 203.032 36.604 197.757C35.612 192.481 32.806 187.718 28.672 184.294C24.538 180.87 19.3364 178.999 13.9683 179.007C8.60022 179.014 3.40382 180.899 -0.720731 184.335C-4.84528 187.77 -7.63815 192.541 -8.61552 197.819C-9.59289 203.097 -8.69321 208.551 -6.07231 213.236C-3.45141 217.921 0.725586 221.541 5.7351 223.47" stroke="black" stroke-width="2" stroke-linecap="round" stroke-linejoin="round"/>
<path d="M-1.7207 193.2C-1.00077 191.815 0.207391 190.746 1.67 190.2C3.07496 189.501 4.69025 189.351 6.2 189.779" stroke="black" stroke-width="2" stroke-linecap="round" stroke-linejoin="round"/>
<path d="M28.89 193.2C28.1194 191.85 26.9323 190.786 25.5063 190.168C24.0804 189.55 22.4925 189.41 20.9805 189.77" stroke="black" stroke-width="2" stroke-linecap="round" stroke-linejoin="round"/>
<path d="M7.23037 197.549C7.08632 197.156 6.81821 196.819 6.46641 196.591C6.11462 196.362 5.69817 196.255 5.27977 196.284C4.8067 196.236 4.3338 196.375 3.96185 196.671C3.58991 196.967 3.34835 197.397 3.28867 197.869C3.34833 198.341 3.58988 198.77 3.96183 199.067C4.33378 199.363 4.8067 199.502 5.27977 199.454L5.23977 199.46C5.71276 199.413 6.18554 199.552 6.55737 199.848C6.92921 200.144 7.17069 200.574 7.23037 201.046C7.17072 201.517 6.92917 201.947 6.55722 202.243C6.18527 202.539 5.71235 202.679 5.23927 202.631C4.82086 202.66 4.4044 202.552 4.05259 202.324C3.70077 202.095 3.43265 201.759 3.28857 201.365" stroke="black" stroke-width="2" stroke-linecap="round" stroke-linejoin="round"/>
<path d="M5.25928 196.283V194.772" stroke="black" stroke-width="2" stroke-linecap="round" stroke-linejoin="round"/>
<path d="M5.25928 204.142V202.631" stroke="black" stroke-width="2" stroke-linecap="round" stroke-linejoin="round"/>
<path d="M24.2669 197.549C24.1228 197.156 23.8547 196.819 23.5029 196.591C23.1511 196.362 22.7347 196.255 22.3163 196.284C21.8432 196.236 21.3703 196.375 20.9984 196.671C20.6264 196.967 20.3849 197.397 20.3252 197.869C20.3849 198.341 20.6264 198.77 20.9983 199.067C21.3703 199.363 21.8432 199.502 22.3163 199.454L22.2763 199.46C22.7494 199.413 23.2223 199.552 23.5942 199.848C23.9662 200.144 24.2077 200.574 24.2674 201.046C24.2077 201.517 23.9662 201.947 23.5942 202.243C23.2223 202.539 22.7494 202.679 22.2763 202.631C21.8579 202.66 21.4414 202.552 21.0896 202.324C20.7378 202.095 20.4697 201.759 20.3256 201.365" stroke="black" stroke-width="2" stroke-linecap="round" stroke-linejoin="round"/>
<path d="M22.2959 196.283V194.772" stroke="black" stroke-width="2" stroke-linecap="round" stroke-linejoin="round"/>
<path d="M22.2959 204.142V202.631" stroke="black" stroke-width="2" stroke-linecap="round" stroke-linejoin="round"/>
<path d="M73 135C80.732 135 87 128.732 87 121C87 113.268 80.732 107 73 107C65.268 107 59 113.268 59 121C59 128.732 65.268 135 73 135Z" fill="#FCEA2B"/>
<path d="M66.6082 112.388L71.2667 111.688L68.989 115.812L71.0946 120.026L66.4689 119.134L63.1117 122.439L62.5307 117.764L58.3501 115.592L62.6167 113.595L63.3902 108.948L66.6082 112.388Z" fill="#F1B31C"/>
<path d="M79.348 112.388L74.6895 111.688L76.9672 115.812L74.8615 120.026L79.4873 119.134L82.8445 122.439L83.4255 117.764L87.6061 115.592L83.3395 113.595L82.566 108.948L79.348 112.388Z" fill="#F1B31C"/>
<path d="M81.0133 127.041C79.9692 129.532 77.3092 131.258 73.0217 131.258C68.6992 131.258 66.0042 129.491 64.9717 126.965C66.1558 127.233 73.71 128.814 81.0133 127.041Z" fill="#EA5A47"/>
<path d="M81.5211 124.422C81.5211 125.355 81.352 126.236 81.0136 127.041C73.7103 128.814 66.1561 127.234 64.972 126.965C64.6511 126.178 64.4878 125.32 64.4878 124.422H64.552C64.552 124.422 73.1911 126.516 81.4045 124.463L81.5211 124.422Z" fill="white"/>
<path d="M81.5206 124.422C81.5206 125.355 81.3515 126.236 81.0131 127.041C73.7098 128.814 66.1556 127.233 64.9715 126.965C64.6506 126.178 64.4873 125.32 64.4873 124.422H64.5515C64.5515 124.422 73.1906 126.516 81.404 124.463L81.5206 124.422Z" stroke="black" stroke-width="2" stroke-miterlimit="10" stroke-linecap="round" stroke-linejoin="round"/>
<path d="M81.0133 127.041C79.9692 129.532 77.3092 131.259 73.0217 131.259C68.6992 131.259 66.0042 129.491 64.9717 126.965C66.1558 127.234 73.71 128.814 81.0133 127.041Z" stroke="black" stroke-width="2" stroke-miterlimit="10" stroke-linejoin="round"/>
<path d="M81.299 126.971C81.2057 126.994 81.1065 127.018 81.0132 127.041" stroke="black" stroke-width="2" stroke-miterlimit="10" stroke-linejoin="round"/>
<path d="M64.9714 126.965C64.8606 126.936 64.8081 126.924 64.8081 126.924" stroke="black" stroke-width="2" stroke-miterlimit="10" stroke-linejoin="round"/>
<path d="M79.1568 109.076C77.3129 108.122 75.2195 107.583 73.0002 107.583C70.6933 107.583 68.5225 108.165 66.6266 109.191C66.5973 109.207 66.5682 109.223 66.5391 109.239" stroke="black" stroke-width="2" stroke-miterlimit="10" stroke-linecap="round" stroke-linejoin="round"/>
<path d="M59.6969 119.247C59.6221 119.821 59.5835 120.406 59.5835 121C59.5835 128.41 65.59 134.417 73.0002 134.417C80.4098 134.417 86.4168 128.41 86.4168 121C86.4168 120.412 86.379 119.834 86.3058 119.266" stroke="black" stroke-width="2" stroke-miterlimit="10" stroke-linecap="round" stroke-linejoin="round"/>
<path d="M66.6521 112.388L71.3107 111.688L69.0329 115.812L71.1386 120.026L66.5129 119.134L63.1557 122.439L62.5746 117.764L58.394 115.592L62.6607 113.595L63.4341 108.948L66.6521 112.388Z" stroke="black" stroke-width="2" stroke-miterlimit="10" stroke-linecap="round" stroke-linejoin="round"/>
<path d="M79.348 112.388L74.6895 111.688L76.9672 115.812L74.8615 120.026L79.4873 119.134L82.8445 122.439L83.4255 117.764L87.6061 115.592L83.3395 113.595L82.566 108.948L79.348 112.388Z" stroke="black" stroke-width="2" stroke-miterlimit="10" stroke-linecap="round" stroke-linejoin="round"/>
<rect width="211" height="211" fill="#545D75" fill-opacity="0.5"/>
<path d="M105 134.75C120.878 134.75 133.75 121.878 133.75 106C133.75 90.1218 120.878 77.25 105 77.25C89.1218 77.25 76.25 90.1218 76.25 106C76.25 121.878 89.1218 134.75 105 134.75Z" fill="#FCEA2B"/>
<path d="M123.244 113.05C123.259 114.975 122.889 116.883 122.156 118.663C106.544 122.45 90.3687 119.087 87.7937 118.5C87.0953 116.769 86.7428 114.917 86.7562 113.05H86.8937C86.8937 113.05 105.394 117.537 123.006 113.137L123.244 113.05Z" fill="white"/>
<path d="M122.156 118.663C119.919 124 114.219 127.7 105.044 127.7C95.7814 127.7 90.0064 123.912 87.7939 118.5C90.3689 119.087 106.544 122.45 122.156 118.663Z" fill="#EA5A47"/>
<path d="M105 134.75C120.878 134.75 133.75 121.878 133.75 106C133.75 90.1218 120.878 77.25 105 77.25C89.1218 77.25 76.25 90.1218 76.25 106C76.25 121.878 89.1218 134.75 105 134.75Z" stroke="black" stroke-width="2" stroke-linecap="round" stroke-linejoin="round"/>
<path d="M123.244 113.05C123.259 114.975 122.889 116.883 122.156 118.663C106.544 122.45 90.3687 119.087 87.7937 118.5C87.0953 116.769 86.7428 114.917 86.7562 113.05H86.8937C86.8937 113.05 105.394 117.537 123.006 113.137L123.244 113.05Z" stroke="black" stroke-width="2" stroke-linecap="round" stroke-linejoin="round"/>
<path d="M122.156 118.663C119.919 124 114.219 127.7 105.044 127.7C95.7814 127.7 90.0064 123.912 87.7939 118.5C90.3689 119.087 106.544 122.45 122.156 118.663Z" stroke="black" stroke-width="2" stroke-linecap="round" stroke-linejoin="round"/>
<path d="M99.6176 101.505C99.1535 100.46 98.3965 99.5726 97.4382 98.9498C96.48 98.3269 95.3616 97.9954 94.2187 97.9954C93.0758 97.9954 91.9574 98.3269 90.9992 98.9498C90.0409 99.5726 89.2839 100.46 88.8198 101.505" stroke="black" stroke-width="2" stroke-miterlimit="10" stroke-linecap="round"/>
<path d="M121.18 101.505C120.716 100.46 119.959 99.5726 119.001 98.9498C118.042 98.3269 116.924 97.9954 115.781 97.9954C114.638 97.9954 113.52 98.3269 112.562 98.9498C111.603 99.5726 110.846 100.46 110.382 101.505" stroke="black" stroke-width="2" stroke-miterlimit="10" stroke-linecap="round"/>
</svg>
