<svg width="211" height="211" viewBox="0 0 211 211" fill="none" xmlns="http://www.w3.org/2000/svg">
<rect width="211" height="211" fill="#545D75"/>
<path d="M187.5 112.514C183.089 112.514 179.514 116.089 179.514 120.5C179.514 124.911 183.089 128.486 187.5 128.486C191.91 128.486 195.486 124.911 195.486 120.5C195.481 116.091 191.908 112.519 187.5 112.514Z" fill="#FCEA2B"/>
<path d="M190.451 125.108H184.549C183.782 125.106 183.162 124.485 183.16 123.719C183.162 122.953 183.782 122.332 184.549 122.33H190.451C191.217 122.332 191.838 122.953 191.84 123.719C191.838 124.485 191.217 125.106 190.451 125.108Z" fill="white"/>
<path d="M184.722 122.504V124.934" stroke="black" stroke-width="2" stroke-linecap="round" stroke-linejoin="round"/>
<path d="M186.458 122.504V124.934" stroke="black" stroke-width="2" stroke-linecap="round" stroke-linejoin="round"/>
<path d="M188.194 122.504V124.934" stroke="black" stroke-width="2" stroke-linecap="round" stroke-linejoin="round"/>
<path d="M189.93 122.504V124.934" stroke="black" stroke-width="2" stroke-linecap="round" stroke-linejoin="round"/>
<path d="M187.5 128.486C191.91 128.486 195.486 124.911 195.486 120.5C195.486 116.089 191.91 112.514 187.5 112.514C183.089 112.514 179.514 116.089 179.514 120.5C179.514 124.911 183.089 128.486 187.5 128.486Z" stroke="black" stroke-width="2" stroke-miterlimit="10"/>
<path d="M190.451 125.108H184.549C183.782 125.106 183.162 124.485 183.16 123.719C183.162 122.953 183.782 122.332 184.549 122.33H190.451C191.217 122.332 191.838 122.953 191.84 123.719C191.838 124.485 191.217 125.106 190.451 125.108Z" stroke="black" stroke-width="2" stroke-miterlimit="2"/>
<path d="M185.416 118.764C185.416 119.339 184.949 119.806 184.375 119.806C183.8 119.806 183.333 119.339 183.333 118.764C183.333 118.189 183.8 117.722 184.375 117.722C184.949 117.722 185.416 118.189 185.416 118.764Z" fill="black"/>
<path d="M191.666 118.764C191.666 119.339 191.199 119.806 190.625 119.806C190.05 119.806 189.583 119.339 189.583 118.764C189.583 118.189 190.05 117.722 190.625 117.722C191.199 117.722 191.666 118.189 191.666 118.764Z" fill="black"/>
<path d="M82.5 22.125C74.5736 22.125 68.125 28.5736 68.125 36.5C68.125 44.4264 74.5736 50.875 82.5 50.875C90.4264 50.875 96.875 44.4264 96.875 36.5C96.875 28.5736 90.4264 22.125 82.5 22.125Z" fill="#E27022"/>
<path d="M82.5 50.875C90.4391 50.875 96.875 44.4391 96.875 36.5C96.875 28.5609 90.4391 22.125 82.5 22.125C74.5609 22.125 68.125 28.5609 68.125 36.5C68.125 44.4391 74.5609 50.875 82.5 50.875Z" stroke="black" stroke-width="2" stroke-miterlimit="10"/>
<path d="M77.5 42.75C78.4878 41.1516 80.5652 40.1657 82.7632 40.2476C84.7812 40.3229 86.6014 41.2872 87.5 42.75" stroke="black" stroke-width="2" stroke-miterlimit="10" stroke-linecap="round" stroke-linejoin="round"/>
<path d="M78.75 34.5783C78.75 35.6137 77.9095 36.4533 76.875 36.4533C75.8404 36.4533 75 35.6137 75 34.5783C75 33.5437 75.8404 32.7033 76.875 32.7033C77.9095 32.7033 78.75 33.5438 78.75 34.5783Z" fill="black"/>
<path d="M90 34.5783C90 35.6137 89.1596 36.4533 88.125 36.4533C87.0904 36.4533 86.25 35.6137 86.25 34.5783C86.25 33.5437 87.0904 32.7033 88.125 32.7033C89.1596 32.7033 90 33.5438 90 34.5783Z" fill="black"/>
<path d="M74.375 29L78.75 31.5" stroke="black" stroke-width="2" stroke-miterlimit="10" stroke-linecap="round" stroke-linejoin="round"/>
<path d="M90.625 29L86.25 31.5" stroke="black" stroke-width="2" stroke-miterlimit="10" stroke-linecap="round" stroke-linejoin="round"/>
<path d="M60.1893 184.198C67.2463 184.198 72.9671 178.477 72.9671 171.42C72.9671 164.363 67.2463 158.642 60.1893 158.642C53.1324 158.642 47.4116 164.363 47.4116 171.42C47.4116 178.477 53.1324 184.198 60.1893 184.198Z" fill="#FCEA2B"/>
<path d="M60.1894 184.198C67.2464 184.198 72.9672 178.477 72.9672 171.42C72.9672 164.363 67.2464 158.642 60.1894 158.642C53.1324 158.642 47.4116 164.363 47.4116 171.42C47.4116 178.477 53.1324 184.198 60.1894 184.198Z" stroke="black" stroke-width="2" stroke-linecap="round" stroke-linejoin="round"/>
<path d="M56.8563 168.642C56.8563 168.972 56.7585 169.294 56.5754 169.568C56.3923 169.842 56.132 170.056 55.8274 170.182C55.5229 170.308 55.1878 170.341 54.8645 170.277C54.5412 170.213 54.2442 170.054 54.0111 169.821C53.778 169.588 53.6193 169.291 53.555 168.967C53.4907 168.644 53.5237 168.309 53.6498 168.004C53.776 167.7 53.9896 167.44 54.2637 167.256C54.5377 167.073 54.86 166.976 55.1896 166.976C55.6316 166.976 56.0554 167.151 56.3679 167.464C56.6805 167.776 56.8561 168.2 56.8563 168.642Z" fill="black"/>
<path d="M66.8563 168.642C66.8563 168.972 66.7585 169.294 66.5754 169.568C66.3923 169.842 66.132 170.056 65.8274 170.182C65.5229 170.308 65.1878 170.341 64.8645 170.277C64.5412 170.213 64.2442 170.054 64.0111 169.821C63.778 169.588 63.6193 169.291 63.555 168.967C63.4907 168.644 63.5237 168.309 63.6498 168.004C63.776 167.7 63.9896 167.44 64.2637 167.256C64.5377 167.073 64.86 166.976 65.1896 166.976C65.6316 166.976 66.0554 167.151 66.368 167.464C66.6805 167.776 66.8561 168.2 66.8563 168.642Z" fill="black"/>
<path d="M54.4443 177.667C59.9999 174.889 66.111 175.428 66.111 175.428" stroke="black" stroke-width="2" stroke-linecap="round" stroke-linejoin="round"/>
<path d="M25.0001 76.9722C33.8213 76.9722 40.9723 69.8212 40.9723 61C40.9723 52.1788 33.8213 45.0278 25.0001 45.0278C16.1788 45.0278 9.02783 52.1788 9.02783 61C9.02783 69.8212 16.1788 76.9722 25.0001 76.9722Z" fill="#FCEA2B"/>
<path d="M25.0001 76.9722C33.8213 76.9722 40.9723 69.8212 40.9723 61C40.9723 52.1788 33.8213 45.0278 25.0001 45.0278C16.1788 45.0278 9.02783 52.1788 9.02783 61C9.02783 69.8212 16.1788 76.9722 25.0001 76.9722Z" fill="#FCEA2B"/>
<path d="M25.0001 76.9722C33.8213 76.9722 40.9723 69.8212 40.9723 61C40.9723 52.1788 33.8213 45.0278 25.0001 45.0278C16.1788 45.0278 9.02783 52.1788 9.02783 61C9.02783 69.8212 16.1788 76.9722 25.0001 76.9722Z" stroke="black" stroke-width="2" stroke-miterlimit="10" stroke-linecap="round" stroke-linejoin="round"/>
<path d="M31.8157 67.1149C27.7523 70.3846 22.0237 70.3703 18.1841 67.1149" stroke="black" stroke-width="2" stroke-miterlimit="10" stroke-linecap="round" stroke-linejoin="round"/>
<path d="M27.9902 57.2467C28.7262 58.9032 30.6657 59.6494 32.3222 58.9135C33.065 58.5835 33.6589 57.9895 33.989 57.2467" stroke="black" stroke-width="2" stroke-miterlimit="10" stroke-linecap="round"/>
<path d="M16.0112 57.2467C16.7472 58.9032 18.6867 59.6494 20.3432 58.9135C21.086 58.5835 21.6799 57.9895 22.01 57.2467" stroke="black" stroke-width="2" stroke-miterlimit="10" stroke-linecap="round"/>
<path d="M15.1729 54.8506C15.7604 53.7209 16.7444 52.8499 17.937 52.4049C19.0826 51.8341 20.3994 51.7131 21.6301 52.0618" stroke="black" stroke-width="2" stroke-miterlimit="10" stroke-linecap="round" stroke-linejoin="round"/>
<path d="M35.9604 54.8506C34.6707 52.5904 32.0444 51.4512 29.5127 52.0539" stroke="black" stroke-width="2" stroke-miterlimit="10" stroke-linecap="round" stroke-linejoin="round"/>
<path d="M184 43.6667C193.205 43.6667 200.667 36.2047 200.667 27C200.667 17.7953 193.205 10.3333 184 10.3333C174.795 10.3333 167.333 17.7953 167.333 27C167.333 36.2047 174.795 43.6667 184 43.6667Z" fill="#FCEA2B"/>
<path d="M185.372 20.5549C190.083 20.7265 194.983 21.1413 199.049 22.0435L199.198 22.0748C197.122 15.6635 191.102 11.0278 184 11.0278C175.178 11.0278 168.028 18.1784 168.028 27C168.028 29.0011 168.396 30.9163 169.068 32.6815L169.067 32.6799C169.067 32.6799 171.699 30.0133 175.977 26.7424C176.817 26.0966 177.727 25.4299 178.692 24.7563C180.699 23.3397 182.949 21.8952 185.372 20.5549Z" fill="white"/>
<path d="M190.192 20.8258C190.581 21.4994 191.15 22.0619 191.845 22.4508C192.741 23.0688 193.838 23.3327 194.921 23.1938" stroke="black" stroke-width="2" stroke-miterlimit="10" stroke-linecap="round" stroke-linejoin="round"/>
<path d="M192.333 26.3056C192.333 27.4561 191.399 28.3889 190.25 28.3889C189.1 28.3889 188.167 27.456 188.167 26.3056C188.167 25.1561 189.1 24.2222 190.25 24.2222C191.399 24.2222 192.333 25.1561 192.333 26.3056Z" fill="black"/>
<path d="M181.992 34.561C181.992 34.561 185.973 33.819 190.091 36.0154" stroke="black" stroke-width="2" stroke-miterlimit="10" stroke-linecap="round" stroke-linejoin="round"/>
<path d="M169.067 32.6799C169.067 32.6799 171.699 30.0133 175.977 26.7424C176.817 26.0966 177.727 25.4299 178.692 24.7563C180.699 23.3397 182.949 21.8952 185.372 20.5549" stroke="black" stroke-width="2" stroke-miterlimit="10" stroke-linecap="round" stroke-linejoin="round"/>
<path d="M178.931 24.5919C178.853 24.6466 178.769 24.7017 178.692 24.7563C177.727 25.4299 176.817 26.0966 175.977 26.7424C175.904 26.7976 175.836 26.8512 175.765 26.9061C176.024 27.7617 176.81 28.3889 177.75 28.3889C178.899 28.3889 179.833 27.4561 179.833 26.3056C179.833 25.5949 179.475 24.9681 178.931 24.5919Z" fill="black"/>
<path d="M199.049 22.0435C187.979 19.5868 169.918 20.6983 169.918 20.6983" stroke="black" stroke-width="2" stroke-miterlimit="10" stroke-linecap="round" stroke-linejoin="round"/>
<path d="M172.448 16.0831C172.448 16.0831 187.437 15.0036 196.722 17.4603" stroke="black" stroke-width="2" stroke-miterlimit="10" stroke-linecap="round" stroke-linejoin="round"/>
<path d="M199.198 22.0748C197.122 15.6635 191.102 11.0278 184 11.0278C175.178 11.0278 168.028 18.1784 168.028 27C168.028 29.0011 168.396 30.9163 169.068 32.6815" stroke="black" stroke-width="2" stroke-miterlimit="10" stroke-linecap="round" stroke-linejoin="round"/>
<path d="M170.17 34.9955C172.933 39.7644 178.092 42.9722 184 42.9722C192.821 42.9722 199.972 35.821 199.972 27C199.972 26.1368 199.904 25.2897 199.772 24.4635" stroke="black" stroke-width="2" stroke-miterlimit="10" stroke-linecap="round" stroke-linejoin="round"/>
<path d="M114.001 200.583C119.294 200.583 123.585 196.293 123.585 191C123.585 185.707 119.294 181.417 114.001 181.417C108.709 181.417 104.418 185.707 104.418 191C104.418 196.293 108.709 200.583 114.001 200.583Z" fill="#B1CC33"/>
<path d="M110.361 185.319C110.262 185.963 109.928 186.545 109.424 186.956C108.963 187.42 108.345 187.695 107.692 187.728" stroke="black" stroke-width="2" stroke-miterlimit="10" stroke-linecap="round" stroke-linejoin="round"/>
<path d="M117.639 185.319C117.738 185.963 118.072 186.545 118.576 186.956C119.037 187.42 119.655 187.695 120.308 187.728" stroke="black" stroke-width="2" stroke-miterlimit="10" stroke-linecap="round" stroke-linejoin="round"/>
<path d="M114.001 200.583C119.294 200.583 123.585 196.293 123.585 191C123.585 185.707 119.294 181.417 114.001 181.417C108.709 181.417 104.418 185.707 104.418 191C104.418 196.293 108.709 200.583 114.001 200.583Z" stroke="black" stroke-width="2" stroke-miterlimit="10" stroke-linecap="round" stroke-linejoin="round"/>
<path d="M111.518 195.174C112.053 194.833 113.13 194.742 114 194.742C114.87 194.742 115.947 194.833 116.482 195.174" stroke="black" stroke-width="2" stroke-miterlimit="10" stroke-linecap="round" stroke-linejoin="round"/>
<path d="M110.946 193.849C111.709 194.545 111.709 195.614 110.946 196.343" stroke="black" stroke-width="2" stroke-miterlimit="10" stroke-linecap="round" stroke-linejoin="round"/>
<path d="M117.055 193.849C116.291 194.545 116.291 195.614 117.055 196.343" stroke="black" stroke-width="2" stroke-miterlimit="10" stroke-linecap="round" stroke-linejoin="round"/>
<path d="M111.5 189.75C111.5 190.44 110.94 191 110.25 191C109.56 191 109 190.44 109 189.75C109 189.06 109.56 188.5 110.25 188.5C110.94 188.5 111.5 189.06 111.5 189.75Z" fill="black"/>
<path d="M119 189.75C119 190.44 118.44 191 117.75 191C117.06 191 116.5 190.44 116.5 189.75C116.5 189.06 117.06 188.5 117.75 188.5C118.44 188.5 119 189.06 119 189.75Z" fill="black"/>
<path d="M162 150.028C153.193 150.028 146.028 157.193 146.028 166C146.028 174.807 153.193 181.972 162 181.972C170.807 181.972 177.972 174.807 177.972 166C177.972 157.193 170.807 150.028 162 150.028Z" fill="#FCEA2B"/>
<path d="M162 181.972C170.821 181.972 177.972 174.821 177.972 166C177.972 157.179 170.821 150.028 162 150.028C153.179 150.028 146.028 157.179 146.028 166C146.028 174.821 153.179 181.972 162 181.972Z" stroke="black" stroke-width="2" stroke-miterlimit="10"/>
<path d="M157.833 162.528C157.833 163.678 156.899 164.611 155.75 164.611C154.6 164.611 153.667 163.678 153.667 162.528C153.667 161.378 154.6 160.444 155.75 160.444C156.899 160.444 157.833 161.378 157.833 162.528Z" fill="black"/>
<path d="M170.333 162.528C170.333 163.678 169.399 164.611 168.25 164.611C167.1 164.611 166.167 163.678 166.167 162.528C166.167 161.378 167.1 160.444 168.25 160.444C169.399 160.444 170.333 161.378 170.333 162.528Z" fill="black"/>
<path d="M156.444 172.944C157.542 171.168 159.85 170.073 162.292 170.164C164.535 170.248 166.557 171.319 167.555 172.944" stroke="black" stroke-width="2" stroke-miterlimit="10" stroke-linecap="round" stroke-linejoin="round"/>
<path d="M161.988 70.8993C161.105 70.8928 160.232 71.0786 159.429 71.4438C158.625 71.809 157.911 72.3448 157.336 73.0139C156.761 73.6831 156.339 74.4695 156.098 75.3185C155.858 76.1674 155.805 77.0586 155.944 77.93C156.169 77.7745 156.436 77.6892 156.71 77.6848C156.983 77.6803 157.252 77.7553 157.483 77.9008C157.714 78.0462 157.898 78.2558 158.012 78.504C158.429 77.5026 158.92 76.5337 159.481 75.6052C159.614 75.3121 159.82 75.0579 160.079 74.867C160.338 74.6761 160.642 74.5548 160.962 74.5147C161.248 74.5048 161.529 74.5839 161.768 74.741C162.451 73.8626 163.232 73.8021 163.787 74.0829C164.062 74.2371 164.293 74.4588 164.459 74.727C164.625 74.9953 164.72 75.3013 164.734 75.6162C164.893 75.6273 165.049 75.6651 165.196 75.7279C165.447 75.826 165.662 76.0007 165.809 76.2274C165.956 76.454 166.028 76.7211 166.015 76.991C166.009 77.4736 165.895 77.9486 165.682 78.3815C165.819 78.502 165.932 78.6471 166.015 78.8093C166.168 79.1313 166.242 79.4853 166.23 79.8417C166.219 80.198 166.122 80.5464 165.949 80.8579L165.475 81.7536C165.435 81.8738 165.403 81.9938 165.369 82.1139C166.465 81.3877 167.297 80.328 167.743 79.0916C168.189 77.8553 168.225 76.5082 167.846 75.2498C167.466 73.9915 166.692 72.8888 165.637 72.1052C164.581 71.3215 163.302 70.8988 161.988 70.8993Z" fill="black"/>
<path d="M162.003 86.8993C169.336 86.8993 175.281 80.9546 175.281 73.6213C175.281 66.2881 169.336 60.3433 162.003 60.3433C154.669 60.3433 148.725 66.2881 148.725 73.6213C148.725 80.9546 154.669 86.8993 162.003 86.8993Z" fill="#FCEA2B"/>
<path d="M161.78 90.8712C161.768 90.8712 161.755 90.8707 161.742 90.8696L156.354 90.4811C156.279 90.4757 156.206 90.4545 156.141 90.4189C156.075 90.3832 156.017 90.334 155.972 90.2744C155.926 90.2148 155.894 90.1463 155.877 90.0733C155.861 90.0004 155.86 89.9247 155.874 89.8512C156.173 88.3554 156.424 87.2351 156.558 86.6334L156.558 86.6324C156.473 86.4577 156.388 86.2765 156.303 86.0958C156.193 85.8636 156.084 85.6314 155.975 85.4125C155.86 85.1841 155.622 84.7077 155.254 80.6125C155.142 79.4916 155.17 78.6792 155.657 78.1109C155.784 77.9499 155.947 77.8196 156.132 77.7299C156.316 77.6402 156.519 77.5934 156.725 77.5928C156.998 77.5883 157.266 77.6633 157.498 77.8088C157.729 77.9542 157.913 78.1638 158.027 78.412C158.444 77.4106 158.935 76.4417 159.496 75.5132C159.629 75.2201 159.835 74.9659 160.094 74.775C160.353 74.5841 160.657 74.4628 160.976 74.4227C161.262 74.4128 161.544 74.4919 161.783 74.6489C162.466 73.7706 163.246 73.7101 163.802 73.9909C164.077 74.1451 164.308 74.3668 164.474 74.635C164.64 74.9033 164.734 75.2093 164.749 75.5242C164.908 75.5353 165.064 75.5731 165.21 75.636C165.462 75.734 165.677 75.9087 165.824 76.1354C165.971 76.362 166.043 76.6292 166.03 76.8991C166.024 77.3816 165.91 77.8567 165.696 78.2896C165.833 78.41 165.947 78.5551 166.03 78.7173C166.183 79.0394 166.257 79.3934 166.245 79.7497C166.234 80.1061 166.137 80.4545 165.963 80.7659L165.49 81.6617C165.37 82.0273 165.28 82.3941 165.193 82.75L165.126 83.0267C164.881 84.2989 164.432 85.5234 163.798 86.653C163.582 87.0818 163.274 87.4571 162.895 87.7516C162.857 87.7885 162.821 87.8227 162.787 87.8552C162.726 87.9054 162.672 87.9628 162.626 88.0261L162.585 88.2724C162.456 88.9682 162.363 89.6703 162.307 90.3758C162.298 90.5099 162.239 90.6356 162.141 90.7276C162.043 90.8195 161.914 90.8707 161.78 90.8707L161.78 90.8712Z" fill="#FCEA2B"/>
<path d="M161.988 70.8993C161.105 70.8928 160.232 71.0786 159.429 71.4438C158.625 71.809 157.911 72.3448 157.336 73.0139C156.761 73.6831 156.339 74.4695 156.098 75.3185C155.858 76.1674 155.805 77.0586 155.944 77.93C156.169 77.7745 156.436 77.6892 156.71 77.6848C156.983 77.6803 157.252 77.7553 157.483 77.9008C157.714 78.0462 157.898 78.2558 158.012 78.504C158.429 77.5026 158.92 76.5337 159.481 75.6052C159.614 75.3121 159.82 75.0579 160.079 74.867C160.338 74.6761 160.642 74.5548 160.962 74.5147C161.248 74.5048 161.529 74.5839 161.768 74.741C162.451 73.8626 163.232 73.8021 163.787 74.0829C164.062 74.2371 164.293 74.4588 164.459 74.727C164.625 74.9953 164.72 75.3013 164.734 75.6162C164.893 75.6273 165.049 75.6651 165.196 75.7279C165.447 75.826 165.662 76.0007 165.809 76.2274C165.956 76.454 166.028 76.7211 166.015 76.991C166.009 77.4736 165.895 77.9486 165.682 78.3815C165.819 78.502 165.932 78.6471 166.015 78.8093C166.168 79.1313 166.242 79.4853 166.23 79.8417C166.219 80.198 166.122 80.5465 165.949 80.8579L165.475 81.7536C165.435 81.8738 165.403 81.9938 165.369 82.1139C166.465 81.3877 167.297 80.328 167.743 79.0916C168.189 77.8553 168.225 76.5082 167.846 75.2498C167.466 73.9915 166.692 72.8888 165.637 72.1052C164.581 71.3215 163.302 70.8988 161.988 70.8993Z" fill="black"/>
<path d="M165.78 85.8436C168.189 85.0936 170.321 83.6468 171.908 81.6859C173.495 79.725 174.466 77.3379 174.697 74.8259C174.929 72.3139 174.411 69.7896 173.209 67.5717C172.007 65.3538 170.175 63.5418 167.944 62.3643C165.713 61.1868 163.183 60.6967 160.674 60.9559C158.164 61.215 155.788 62.2118 153.845 63.8203C151.901 65.4289 150.478 67.5771 149.755 69.9938C149.031 72.4106 149.04 74.9874 149.78 77.3991C150.516 79.7248 151.881 81.8014 153.725 83.3991" stroke="black" stroke-width="2" stroke-linecap="round" stroke-linejoin="round"/>
<path d="M154.836 68.4824C157.28 68.4269 159.225 67.7047 159.725 66.7602" stroke="black" stroke-width="2" stroke-linecap="round" stroke-linejoin="round"/>
<path d="M169.169 68.4824C166.725 68.4269 164.78 67.7047 164.28 66.7602" stroke="black" stroke-width="2" stroke-linecap="round" stroke-linejoin="round"/>
<path d="M156.391 89.9547C156.724 88.288 157.002 87.0658 157.113 86.5658C156.891 86.1213 156.669 85.6213 156.447 85.1769C156.336 84.9547 156.113 84.288 155.78 80.5658C155.669 79.4547 155.724 78.8436 156.058 78.4547C156.137 78.3531 156.238 78.2705 156.354 78.2128C156.469 78.1552 156.596 78.1239 156.724 78.1213C157.447 78.1213 157.669 78.788 157.836 79.4547L157.891 79.6213L158.002 79.9547C158.503 78.5015 159.154 77.1049 159.947 75.788C160.947 74.1213 161.891 75.4547 161.891 75.4547C163.113 73.1769 164.669 75.0102 164.113 76.1769C164.249 76.1062 164.399 76.0647 164.552 76.0552C164.705 76.0456 164.858 76.0681 165.002 76.1213C165.157 76.1816 165.289 76.2893 165.379 76.429C165.468 76.5687 165.512 76.7333 165.502 76.8991C165.486 77.4545 165.313 77.9939 165.002 78.4547C165.235 78.5589 165.43 78.7338 165.558 78.9547C165.672 79.1998 165.727 79.4687 165.717 79.7391C165.708 80.0096 165.634 80.2738 165.502 80.5102L165.002 81.4547C164.836 81.9547 164.724 82.4547 164.613 82.8991C164.38 84.1273 163.948 85.3093 163.336 86.3991C163.154 86.7706 162.888 87.0941 162.558 87.3436C162.336 87.5658 162.169 87.6769 162.113 87.8991C161.96 88.7076 161.849 89.5235 161.78 90.3436" stroke="black" stroke-width="2" stroke-linecap="round" stroke-linejoin="round"/>
<path d="M156.579 78.1363C156.357 77.1417 156.413 76.1054 156.741 75.1406C157.069 74.1758 157.656 73.3197 158.437 72.6659C159.219 72.0122 160.165 71.5859 161.172 71.4338C162.18 71.2817 163.21 71.4096 164.15 71.8034C165.089 72.1973 165.903 72.8421 166.501 73.6671C167.099 74.4921 167.458 75.4657 167.54 76.4814C167.622 77.497 167.423 78.5156 166.965 79.4258C166.507 80.3359 165.807 81.1026 164.942 81.6418" stroke="black" stroke-width="2" stroke-linecap="round" stroke-linejoin="round"/>
<path d="M7 180C18.0457 180 27 171.046 27 160C27 148.954 18.0457 140 7 140C-4.0457 140 -13 148.954 -13 160C-13 171.046 -4.0457 180 7 180Z" fill="#FCEA2B"/>
<path d="M2.41477 174.478C-1.16523 173.237 -2.96973 170.477 -2.96973 167.242H-2.89148C-2.89148 167.242 7.22311 169.794 16.8444 167.297L16.9782 167.242C17.006 168.868 16.4975 170.458 15.5312 171.766C14.5649 173.074 13.1946 174.028 11.6322 174.479" fill="white"/>
<path d="M10.782 171.074C10.782 171.074 12.047 178.423 9.89505 180.19L9.9163 180.172C9.53692 180.563 9.08297 180.873 8.58135 181.086C8.07973 181.298 7.54064 181.407 6.996 181.407C6.45137 181.407 5.91227 181.298 5.41065 181.086C4.90903 180.873 4.45509 180.563 4.07571 180.172C1.92371 178.405 3.18871 171.056 3.18871 171.056" fill="#B1CC33"/>
<path d="M2.41477 174.478C-1.16523 173.237 -2.96973 170.477 -2.96973 167.242H-2.89148C-2.89148 167.242 7.22311 169.794 16.8444 167.297L16.9782 167.242C17.006 168.868 16.4975 170.458 15.5312 171.766C14.5649 173.074 13.1946 174.028 11.6322 174.479" stroke="black" stroke-width="2" stroke-linecap="round" stroke-linejoin="round"/>
<path d="M-6.10059 152.667C-5.50064 151.512 -4.49384 150.622 -3.275 150.167C-2.1042 149.584 -0.758127 149.459 0.499998 149.816" stroke="black" stroke-width="2" stroke-linecap="round" stroke-linejoin="round"/>
<path d="M19.4081 152.667C18.766 151.542 17.7767 150.655 16.5884 150.14C15.4002 149.625 14.0769 149.508 12.8169 149.808" stroke="black" stroke-width="2" stroke-linecap="round" stroke-linejoin="round"/>
<path d="M13.9365 177.873C18.1067 176.254 21.5791 173.227 23.7524 169.317C25.9257 165.407 26.6629 160.86 25.8363 156.464C25.0097 152.067 22.6713 148.099 19.2263 145.245C15.7813 142.391 11.4466 140.833 6.97325 140.839C2.49985 140.845 -1.83048 142.416 -5.2676 145.279C-8.70472 148.142 -11.0321 152.117 -11.8466 156.516C-12.6611 160.914 -11.9113 165.459 -9.72725 169.363C-7.54317 173.267 -4.06234 176.284 0.112262 177.892" stroke="black" stroke-width="2" stroke-linecap="round" stroke-linejoin="round"/>
<path d="M-6.10059 152.667C-5.50064 151.512 -4.49384 150.622 -3.275 150.167C-2.1042 149.584 -0.758127 149.459 0.499998 149.816" stroke="black" stroke-width="2" stroke-linecap="round" stroke-linejoin="round"/>
<path d="M19.4081 152.667C18.766 151.542 17.7767 150.655 16.5884 150.14C15.4002 149.625 14.0769 149.508 12.8169 149.808" stroke="black" stroke-width="2" stroke-linecap="round" stroke-linejoin="round"/>
<path d="M10.7816 171.074C10.7816 171.074 12.0466 178.423 9.89456 180.19L9.91581 180.172C9.53643 180.563 9.08249 180.873 8.58086 181.086C8.07924 181.298 7.54015 181.407 6.99551 181.407C6.45088 181.407 5.91179 181.298 5.41016 181.086C4.90854 180.873 4.4546 180.563 4.07522 180.172C1.92322 178.405 3.18822 171.056 3.18822 171.056" stroke="black" stroke-width="2" stroke-linecap="round" stroke-linejoin="round"/>
<path d="M1.35807 156.291C1.23803 155.963 1.01461 155.683 0.721442 155.492C0.428277 155.302 0.081238 155.212 -0.267425 155.236C-0.66165 155.197 -1.05574 155.313 -1.36569 155.559C-1.67564 155.806 -1.87694 156.164 -1.92668 156.557C-1.87696 156.95 -1.67567 157.309 -1.36571 157.555C-1.05576 157.802 -0.661654 157.918 -0.267425 157.879L-0.300757 157.883C0.0933998 157.844 0.487383 157.96 0.797243 158.207C1.1071 158.454 1.30834 158.812 1.35807 159.205C1.30836 159.598 1.10707 159.956 0.797113 160.203C0.487156 160.449 0.0930536 160.565 -0.301175 160.526C-0.649849 160.55 -0.996899 160.46 -1.29008 160.27C-1.58326 160.079 -1.8067 159.799 -1.92676 159.471" stroke="black" stroke-width="2" stroke-linecap="round" stroke-linejoin="round"/>
<path d="M-0.28418 155.236V153.977" stroke="black" stroke-width="2" stroke-linecap="round" stroke-linejoin="round"/>
<path d="M-0.28418 161.785V160.526" stroke="black" stroke-width="2" stroke-linecap="round" stroke-linejoin="round"/>
<path d="M15.5557 156.291C15.4357 155.963 15.2123 155.683 14.9191 155.492C14.6259 155.302 14.2789 155.212 13.9302 155.236C13.536 155.197 13.1419 155.313 12.832 155.559C12.522 155.806 12.3207 156.164 12.271 156.557C12.3207 156.95 12.522 157.309 12.832 157.555C13.1419 157.802 13.536 157.918 13.9302 157.879L13.8969 157.883C14.2911 157.844 14.6852 157.96 14.9952 158.207C15.3051 158.453 15.5064 158.812 15.5562 159.205C15.5064 159.598 15.3052 159.956 14.9952 160.203C14.6852 160.449 14.2911 160.565 13.8969 160.526C13.5482 160.55 13.2012 160.46 12.908 160.27C12.6148 160.079 12.3914 159.799 12.2713 159.471" stroke="black" stroke-width="2" stroke-linecap="round" stroke-linejoin="round"/>
<path d="M13.9131 155.236V153.977" stroke="black" stroke-width="2" stroke-linecap="round" stroke-linejoin="round"/>
<path d="M13.9131 161.785V160.526" stroke="black" stroke-width="2" stroke-linecap="round" stroke-linejoin="round"/>
<path d="M8.58099 174.288C8.46096 173.96 8.23754 173.68 7.94437 173.489C7.65121 173.299 7.30416 173.209 6.95549 173.233C6.75685 173.188 6.55048 173.187 6.35173 173.233C6.15298 173.278 5.96696 173.367 5.80753 173.494C5.64809 173.621 5.51933 173.782 5.43084 173.966C5.34234 174.149 5.29639 174.351 5.29639 174.554C5.29639 174.758 5.34234 174.959 5.43084 175.143C5.51933 175.327 5.64809 175.488 5.80753 175.615C5.96696 175.742 6.15298 175.831 6.35173 175.876C6.55048 175.922 6.75685 175.921 6.95549 175.876L6.92216 175.881C7.12079 175.835 7.32716 175.835 7.52592 175.88C7.72467 175.925 7.91068 176.014 8.07012 176.141C8.22955 176.268 8.35831 176.43 8.44681 176.613C8.5353 176.797 8.58126 176.998 8.58126 177.202C8.58126 177.406 8.5353 177.607 8.44681 177.79C8.35831 177.974 8.22955 178.135 8.07012 178.262C7.91068 178.389 7.72467 178.479 7.52592 178.524C7.32716 178.569 7.12079 178.569 6.92216 178.523C6.57348 178.547 6.22643 178.457 5.93325 178.267C5.64007 178.077 5.41664 177.796 5.29657 177.468" stroke="black" stroke-width="2" stroke-linecap="round" stroke-linejoin="round"/>
<path d="M6.93848 173.233V171.974" stroke="black" stroke-width="2" stroke-linecap="round" stroke-linejoin="round"/>
<path d="M6.93848 179.782V178.523" stroke="black" stroke-width="2" stroke-linecap="round" stroke-linejoin="round"/>
<path d="M27.111 95.3889C24.6058 95.3889 22.1568 96.1318 20.0738 97.5236C17.9908 98.9154 16.3672 100.894 15.4085 103.208C14.4498 105.523 14.199 108.07 14.6877 110.527C15.1765 112.984 16.3829 115.241 18.1543 117.012C19.9258 118.784 22.1828 119.99 24.6399 120.479C27.097 120.968 29.6438 120.717 31.9583 119.758C34.2729 118.799 36.2511 117.176 37.643 115.093C39.0348 113.01 39.7777 110.561 39.7777 108.056C39.7784 106.392 39.4513 104.744 38.815 103.207C38.1787 101.67 37.2457 100.274 36.0693 99.0972C34.893 97.9209 33.4963 96.9879 31.9592 96.3516C30.4221 95.7153 28.7746 95.3882 27.111 95.3889Z" fill="#FCEA2B"/>
<path d="M29.5 111.167C28.5 113.556 28.3889 114.5 26.4444 116.111C23.3333 118.778 22.2222 113.833 23.2778 111.167H29.5Z" fill="#EA5A47"/>
<path d="M26.9999 120.778C34.0569 120.778 39.7777 115.057 39.7777 108C39.7777 100.943 34.0569 95.2222 26.9999 95.2222C19.943 95.2222 14.2222 100.943 14.2222 108C14.2222 115.057 19.943 120.778 26.9999 120.778Z" stroke="black" stroke-width="2" stroke-miterlimit="10"/>
<path d="M29.4999 111.472C28.4999 114.694 26.1666 117.417 24.4999 116.917C22.8332 116.417 22.2777 114.194 23.2221 110.917" stroke="black" stroke-width="2" stroke-miterlimit="10"/>
<path d="M32.9999 110.056C32.7635 110.264 32.5741 110.521 32.4444 110.808C32.3146 111.095 32.2476 111.407 32.2476 111.722C32.2476 112.038 32.3146 112.349 32.4444 112.637C32.5741 112.924 32.7635 113.18 32.9999 113.389" stroke="black" stroke-width="2.0013" stroke-linecap="round" stroke-linejoin="round"/>
<path d="M20.2222 111.722C21.4999 111.278 23.9999 111.167 26.0555 111.167C28.1111 111.167 30.6666 111.278 31.8888 111.722" stroke="black" stroke-width="2.0013" stroke-linecap="round" stroke-linejoin="round"/>
<path d="M34.1665 106C33.9621 105.537 33.6275 105.143 33.2033 104.867C32.7792 104.59 32.2838 104.443 31.7776 104.443C31.2713 104.443 30.7759 104.59 30.3518 104.867C29.9277 105.143 29.5931 105.537 29.3887 106" stroke="black" stroke-width="2" stroke-miterlimit="10" stroke-linecap="round"/>
<path d="M24.6113 106C24.4069 105.537 24.0723 105.143 23.6481 104.867C23.224 104.59 22.7287 104.443 22.2224 104.443C21.7161 104.443 21.2208 104.59 20.7966 104.867C20.3725 105.143 20.0379 105.537 19.8335 106" stroke="black" stroke-width="2" stroke-miterlimit="10" stroke-linecap="round"/>
<path d="M73 135C80.732 135 87 128.732 87 121C87 113.268 80.732 107 73 107C65.268 107 59 113.268 59 121C59 128.732 65.268 135 73 135Z" fill="#FCEA2B"/>
<path d="M66.6082 112.388L71.2667 111.688L68.989 115.812L71.0946 120.026L66.4689 119.134L63.1117 122.439L62.5307 117.764L58.3501 115.592L62.6167 113.595L63.3902 108.948L66.6082 112.388Z" fill="#F1B31C"/>
<path d="M79.348 112.388L74.6895 111.688L76.9672 115.812L74.8615 120.026L79.4873 119.134L82.8445 122.439L83.4255 117.764L87.6061 115.592L83.3395 113.595L82.566 108.948L79.348 112.388Z" fill="#F1B31C"/>
<path d="M81.0133 127.041C79.9692 129.532 77.3092 131.258 73.0217 131.258C68.6992 131.258 66.0042 129.491 64.9717 126.965C66.1558 127.233 73.71 128.814 81.0133 127.041Z" fill="#EA5A47"/>
<path d="M81.5211 124.422C81.5211 125.355 81.352 126.236 81.0136 127.041C73.7103 128.814 66.1561 127.234 64.972 126.965C64.6511 126.178 64.4878 125.32 64.4878 124.422H64.552C64.552 124.422 73.1911 126.516 81.4045 124.463L81.5211 124.422Z" fill="white"/>
<path d="M81.5206 124.422C81.5206 125.355 81.3515 126.236 81.0131 127.041C73.7098 128.814 66.1556 127.233 64.9715 126.965C64.6506 126.178 64.4873 125.32 64.4873 124.422H64.5515C64.5515 124.422 73.1906 126.516 81.404 124.463L81.5206 124.422Z" stroke="black" stroke-width="2" stroke-miterlimit="10" stroke-linecap="round" stroke-linejoin="round"/>
<path d="M81.0133 127.041C79.9692 129.532 77.3092 131.259 73.0217 131.259C68.6992 131.259 66.0042 129.491 64.9717 126.965C66.1558 127.234 73.71 128.814 81.0133 127.041Z" stroke="black" stroke-width="2" stroke-miterlimit="10" stroke-linejoin="round"/>
<path d="M81.299 126.971C81.2057 126.994 81.1065 127.018 81.0132 127.041" stroke="black" stroke-width="2" stroke-miterlimit="10" stroke-linejoin="round"/>
<path d="M64.9714 126.965C64.8606 126.936 64.8081 126.924 64.8081 126.924" stroke="black" stroke-width="2" stroke-miterlimit="10" stroke-linejoin="round"/>
<path d="M79.1568 109.076C77.3129 108.122 75.2195 107.583 73.0002 107.583C70.6933 107.583 68.5225 108.165 66.6266 109.191C66.5973 109.207 66.5682 109.223 66.5391 109.239" stroke="black" stroke-width="2" stroke-miterlimit="10" stroke-linecap="round" stroke-linejoin="round"/>
<path d="M59.6969 119.247C59.6221 119.821 59.5835 120.406 59.5835 121C59.5835 128.41 65.59 134.417 73.0002 134.417C80.4098 134.417 86.4168 128.41 86.4168 121C86.4168 120.412 86.379 119.834 86.3058 119.266" stroke="black" stroke-width="2" stroke-miterlimit="10" stroke-linecap="round" stroke-linejoin="round"/>
<path d="M66.6521 112.388L71.3107 111.688L69.0329 115.812L71.1386 120.026L66.5129 119.134L63.1557 122.439L62.5746 117.764L58.394 115.592L62.6607 113.595L63.4341 108.948L66.6521 112.388Z" stroke="black" stroke-width="2" stroke-miterlimit="10" stroke-linecap="round" stroke-linejoin="round"/>
<path d="M79.348 112.388L74.6895 111.688L76.9672 115.812L74.8615 120.026L79.4873 119.134L82.8445 122.439L83.4255 117.764L87.6061 115.592L83.3395 113.595L82.566 108.948L79.348 112.388Z" stroke="black" stroke-width="2" stroke-miterlimit="10" stroke-linecap="round" stroke-linejoin="round"/>
<path d="M205 227C218.255 227 229 216.255 229 203C229 189.745 218.255 179 205 179C191.745 179 181 189.745 181 203C181 216.255 191.745 227 205 227Z" fill="#FCEA2B"/>
<path d="M180.319 201.66C180.234 201.835 180.024 201.908 179.85 201.824C179.778 201.789 179.72 201.732 179.686 201.66C178.716 199.646 176.296 198.8 174.282 199.77C172.268 200.74 171.422 203.16 172.392 205.174C172.499 205.394 172.625 205.605 172.769 205.803L180.002 215.077L187.193 205.859L187.425 205.517C188.587 203.607 187.981 201.117 186.071 199.955C184.161 198.793 181.671 199.4 180.509 201.31C180.44 201.423 180.376 201.54 180.319 201.66Z" fill="#FFA7C0"/>
<path d="M217.319 174.66C217.234 174.835 217.024 174.908 216.849 174.824C216.778 174.789 216.72 174.732 216.686 174.66C215.715 172.646 213.296 171.8 211.282 172.77C209.268 173.74 208.422 176.16 209.392 178.174C209.499 178.394 209.625 178.605 209.769 178.803L217.002 188.077L224.193 178.859L224.425 178.517C225.587 176.607 224.981 174.117 223.071 172.955C221.161 171.793 218.671 172.4 217.509 174.31C217.44 174.423 217.376 174.54 217.319 174.66Z" fill="#FFA7C0"/>
<path d="M214.815 211.804C209.115 216.503 200.885 216.503 195.185 211.804" stroke="black" stroke-width="2" stroke-linecap="round" stroke-linejoin="round"/>
<path d="M176.04 199.366C173.803 199.366 171.99 201.179 171.99 203.416C171.99 204.157 172.194 204.884 172.578 205.517L172.81 205.859L180.001 215.077L187.234 205.802C188.555 203.998 188.163 201.465 186.358 200.145C184.554 198.824 182.021 199.217 180.701 201.021C180.554 201.222 180.426 201.436 180.318 201.66C180.234 201.835 180.024 201.908 179.849 201.824C179.777 201.789 179.72 201.731 179.685 201.66C179.017 200.254 177.597 199.36 176.04 199.366Z" stroke="black" stroke-width="2" stroke-linecap="round" stroke-linejoin="round"/>
<path d="M213.04 172.366C210.803 172.366 208.99 174.179 208.99 176.416C208.99 177.157 209.194 177.884 209.578 178.517L209.81 178.859L217.001 188.077L224.234 178.802C225.555 176.998 225.163 174.465 223.358 173.145C221.554 171.824 219.021 172.217 217.701 174.021C217.554 174.222 217.426 174.436 217.318 174.66C217.234 174.835 217.024 174.908 216.849 174.824C216.777 174.789 216.72 174.732 216.685 174.66C216.017 173.254 214.597 172.36 213.04 172.366Z" stroke="black" stroke-width="2" stroke-linecap="round" stroke-linejoin="round"/>
<path d="M183.732 194.227C187.181 185.877 195.404 180 205 180" stroke="black" stroke-width="2" stroke-linecap="round" stroke-linejoin="round"/>
<path d="M200.694 199.404C199.635 197.018 196.842 195.944 194.456 197.003C193.387 197.479 192.531 198.334 192.056 199.404" stroke="black" stroke-width="2" stroke-miterlimit="10" stroke-linecap="round"/>
<path d="M217.944 199.404C216.885 197.018 214.092 195.944 211.706 197.003C210.637 197.479 209.781 198.334 209.306 199.404" stroke="black" stroke-width="2" stroke-miterlimit="10" stroke-linecap="round"/>
<path d="M43.9999 18.7778C51.0569 18.7778 56.7777 13.057 56.7777 6C56.7777 -1.05697 51.0569 -6.77778 43.9999 -6.77778C36.943 -6.77778 31.2222 -1.05697 31.2222 6C31.2222 13.057 36.943 18.7778 43.9999 18.7778Z" fill="#FCEA2B"/>
<path d="M38.7218 1.24355C38.0188 -0.619836 35.1434 -0.739058 35.3235 1.97566C35.3475 2.33594 35.4796 2.68255 35.6799 2.98316L38.6343 6.55116L41.5349 3.07005C41.8569 2.68316 42.0474 2.19344 42.0377 1.68933C41.9898 -0.728614 39.2316 -0.552391 38.6336 1.24289" fill="#D22F27"/>
<path d="M49.4448 1.24355C48.7478 -0.619836 45.8963 -0.739058 46.0749 1.97566C46.0987 2.33594 46.2298 2.68255 46.4283 2.98316L49.3581 6.55116L52.2346 3.07005C52.5539 2.68316 52.7428 2.19344 52.7332 1.68933C52.6856 -0.728614 49.9505 -0.552391 49.3575 1.24289" fill="#D22F27"/>
<path d="M50.992 9.7075C50.992 12.8351 48.6707 15.3212 44.0175 15.3212C39.3654 15.3212 37.0137 12.8274 37.0137 9.70744C37.0137 9.70744 44.25 11.3914 50.992 9.7075Z" fill="white"/>
<path d="M43.9999 18.7778C51.0569 18.7778 56.7777 13.057 56.7777 6C56.7777 -1.05697 51.0569 -6.77778 43.9999 -6.77778C36.943 -6.77778 31.2222 -1.05697 31.2222 6C31.2222 13.057 36.943 18.7778 43.9999 18.7778Z" stroke="black" stroke-width="2" stroke-miterlimit="10" stroke-linecap="round" stroke-linejoin="round"/>
<path d="M50.992 9.7075C50.992 12.8351 48.6707 15.3212 44.0175 15.3212C39.3654 15.3212 37.0137 12.8274 37.0137 9.70744C37.0137 9.70744 44.25 11.3914 50.992 9.7075Z" stroke="black" stroke-width="2" stroke-miterlimit="10" stroke-linecap="round" stroke-linejoin="round"/>
<path d="M38.7218 1.24355C38.0188 -0.619836 35.1434 -0.739058 35.3235 1.97566C35.3475 2.33594 35.4796 2.68255 35.6799 2.98316L38.6343 6.55116L41.5349 3.07005C41.8569 2.68316 42.0474 2.19344 42.0377 1.68933C41.9898 -0.728614 39.2316 -0.552391 38.6336 1.24289" stroke="black" stroke-width="2" stroke-miterlimit="10" stroke-linecap="round" stroke-linejoin="round"/>
<path d="M49.4448 1.24355C48.7478 -0.619836 45.8963 -0.739058 46.0749 1.97566C46.0987 2.33594 46.2298 2.68255 46.4283 2.98316L49.3581 6.55116L52.2346 3.07005C52.5539 2.68316 52.7428 2.19344 52.7332 1.68933C52.6856 -0.728614 49.9505 -0.552391 49.3575 1.24289" stroke="black" stroke-width="2" stroke-miterlimit="10" stroke-linecap="round" stroke-linejoin="round"/>
<path d="M26.9998 199.417C21.7165 199.417 17.4165 203.717 17.4165 209C17.4165 214.283 21.7165 218.583 26.9998 218.583C32.2832 218.583 36.5832 214.283 36.5832 209C36.5832 203.717 32.2832 199.417 26.9998 199.417Z" fill="#FCEA2B"/>
<path d="M25.2333 206.987C25.2333 208.014 24.4 208.847 23.3737 208.847C22.3475 208.847 21.5142 208.015 21.5142 206.987C21.5142 205.962 22.3475 205.128 23.3737 205.128C24.4 205.128 25.2333 205.961 25.2333 206.987Z" fill="white"/>
<path d="M33.1833 207.633C33.1833 209.035 32.0458 210.171 30.6453 210.171C29.2449 210.171 28.1074 209.035 28.1074 207.633C28.1074 206.233 29.2449 205.095 30.6453 205.095C32.0458 205.095 33.1833 206.233 33.1833 207.633Z" fill="white"/>
<path d="M26.9998 218.583C32.2926 218.583 36.5832 214.293 36.5832 209C36.5832 203.707 32.2926 199.417 26.9998 199.417C21.7071 199.417 17.4165 203.707 17.4165 209C17.4165 214.293 21.7071 218.583 26.9998 218.583Z" stroke="black" stroke-width="2" stroke-miterlimit="10"/>
<path d="M25.3163 207.038C25.3163 208.064 24.483 208.897 23.4568 208.897C22.4305 208.897 21.5972 208.065 21.5972 207.038C21.5972 206.012 22.4305 205.178 23.4568 205.178C24.483 205.178 25.3163 206.011 25.3163 207.038Z" stroke="black" stroke-width="2" stroke-miterlimit="10"/>
<path d="M23.883 207.458C23.883 207.918 23.5094 208.292 23.0496 208.292C22.5899 208.292 22.2163 207.919 22.2163 207.458C22.2163 206.998 22.5899 206.625 23.0496 206.625C23.5094 206.625 23.883 206.999 23.883 207.458Z" fill="black"/>
<path d="M33.2663 207.679C33.2663 209.081 32.1288 210.217 30.7283 210.217C29.3279 210.217 28.1904 209.081 28.1904 207.679C28.1904 206.279 29.3279 205.141 30.7283 205.141C32.1288 205.141 33.2663 206.279 33.2663 207.679Z" stroke="black" stroke-width="2" stroke-miterlimit="10"/>
<path d="M32.4332 207.375C32.4332 208.003 31.9232 208.513 31.2957 208.513C30.6682 208.513 30.1582 208.003 30.1582 207.375C30.1582 206.748 30.6682 206.238 31.2957 206.238C31.9232 206.238 32.4332 206.748 32.4332 207.375Z" fill="black"/>
<path d="M28.2832 203.975C28.4554 203.832 29.219 203.228 30.3286 203.293C31.229 203.346 31.8328 203.807 32.0332 203.975" stroke="black" stroke-width="2" stroke-miterlimit="10" stroke-linecap="round" stroke-linejoin="round"/>
<path d="M21.583 203.821C21.7552 203.678 22.5188 203.074 23.6284 203.139C24.5288 203.192 25.1326 203.653 25.333 203.821" stroke="black" stroke-width="2" stroke-miterlimit="10" stroke-linecap="round" stroke-linejoin="round"/>
<path d="M28.8583 214.471C28.8625 214.467 28.8625 214.463 28.8625 214.463C29.4458 213.788 29.7042 213.058 29.7708 212.999L23.25 211.604C23.3448 211.8 23.0323 214.388 24.9617 215.296" stroke="black" stroke-width="2" stroke-miterlimit="10" stroke-linecap="round" stroke-linejoin="round"/>
<path d="M137 34.1667C147.586 34.1667 156.167 25.5855 156.167 15C156.167 4.41454 147.586 -4.16667 137 -4.16667C126.415 -4.16667 117.833 4.41454 117.833 15C117.833 25.5855 126.415 34.1667 137 34.1667Z" fill="#FCEA2B"/>
<path d="M144.776 17.1366C148.078 17.1366 150.758 14.7517 150.758 11.8125C150.758 10.342 151.13 8.87158 150.048 7.90816C148.965 6.94475 146.427 6.48841 144.776 6.48841C142.812 6.48841 140.49 6.60791 139.4 7.90816C138.655 8.79583 138.794 10.6193 138.794 11.8125C138.794 14.7517 141.471 17.1366 144.776 17.1366Z" fill="#3F3F3F"/>
<path d="M128.449 17.1366C131.751 17.1366 134.431 14.7517 134.431 11.8125C134.431 10.342 134.803 8.87158 133.721 7.90816C132.638 6.94475 130.1 6.48841 128.449 6.48841C126.485 6.48841 124.163 6.60791 123.072 7.90816C122.328 8.79583 122.467 10.6193 122.467 11.8125C122.467 14.7517 125.144 17.1366 128.449 17.1366Z" fill="#3F3F3F"/>
<path d="M136.906 34.2137C147.491 34.2137 156.073 25.6325 156.073 15.0471C156.073 4.46163 147.491 -4.11958 136.906 -4.11958C126.32 -4.11958 117.739 4.46163 117.739 15.0471C117.739 25.6325 126.32 34.2137 136.906 34.2137Z" stroke="black" stroke-width="2" stroke-miterlimit="10" stroke-linecap="round" stroke-linejoin="round"/>
<path d="M145.085 22.385C139.607 25.3223 133.38 25.433 128.727 22.385" stroke="black" stroke-width="2" stroke-miterlimit="10" stroke-linecap="round" stroke-linejoin="round"/>
<path d="M122.736 10.3865C122.736 10.3865 121.941 17.5122 128.453 16.9853C130.636 16.8086 134.967 16.443 135.009 10.033C135.013 9.45142 135.002 8.70058 134.333 7.8415C133.446 6.70242 131.357 6.19892 126.046 6.6565C126.046 6.6565 123.174 6.574 122.736 10.3865Z" stroke="black" stroke-width="2" stroke-miterlimit="10" stroke-linecap="round" stroke-linejoin="round"/>
<path d="M122.795 9.94225L122.434 7.13284L125.628 6.69308" stroke="black" stroke-width="2" stroke-miterlimit="10" stroke-linecap="round" stroke-linejoin="round"/>
<path d="M150.951 10.3865C150.951 10.3865 151.745 17.5122 145.233 16.9853C143.05 16.8086 138.72 16.443 138.678 10.033C138.674 9.45142 138.684 8.70058 139.353 7.8415C140.241 6.70242 142.33 6.19892 147.64 6.6565C147.64 6.6565 150.512 6.574 150.951 10.3865Z" stroke="black" stroke-width="2" stroke-miterlimit="10" stroke-linecap="round" stroke-linejoin="round"/>
<path d="M133.254 7.01317C133.254 7.01317 136.691 9.12475 140.468 7.01317" stroke="black" stroke-width="2" stroke-miterlimit="10" stroke-linecap="round" stroke-linejoin="round"/>
<path d="M134.947 11.0983C134.947 11.0983 136.782 7.9725 138.727 11.0983" stroke="black" stroke-width="2" stroke-miterlimit="10" stroke-linecap="round" stroke-linejoin="round"/>
<path d="M150.886 9.94433L151.247 7.13492L148.053 6.69517" stroke="black" stroke-width="2" stroke-miterlimit="10" stroke-linecap="round" stroke-linejoin="round"/>
<path d="M135.296 10.0226C135.296 10.0226 136.792 6.89683 138.378 10.0226" stroke="black" stroke-width="2" stroke-miterlimit="10" stroke-linecap="round" stroke-linejoin="round"/>
<rect width="211" height="211" fill="#545D75" fill-opacity="0.5"/>
<path d="M105 134.75C120.878 134.75 133.75 121.878 133.75 106C133.75 90.1218 120.878 77.25 105 77.25C89.1218 77.25 76.25 90.1218 76.25 106C76.25 121.878 89.1218 134.75 105 134.75Z" fill="#FCEA2B"/>
<path d="M123.244 113.05C123.259 114.975 122.889 116.883 122.156 118.663C106.544 122.45 90.3687 119.087 87.7937 118.5C87.0953 116.769 86.7428 114.917 86.7562 113.05H86.8937C86.8937 113.05 105.394 117.537 123.006 113.137L123.244 113.05Z" fill="white"/>
<path d="M122.156 118.663C119.919 124 114.219 127.7 105.044 127.7C95.7814 127.7 90.0064 123.912 87.7939 118.5C90.3689 119.087 106.544 122.45 122.156 118.663Z" fill="#EA5A47"/>
<path d="M105 134.75C120.878 134.75 133.75 121.878 133.75 106C133.75 90.1218 120.878 77.25 105 77.25C89.1218 77.25 76.25 90.1218 76.25 106C76.25 121.878 89.1218 134.75 105 134.75Z" stroke="black" stroke-width="2" stroke-linecap="round" stroke-linejoin="round"/>
<path d="M123.244 113.05C123.259 114.975 122.889 116.883 122.156 118.663C106.544 122.45 90.3687 119.087 87.7937 118.5C87.0953 116.769 86.7428 114.917 86.7562 113.05H86.8937C86.8937 113.05 105.394 117.537 123.006 113.137L123.244 113.05Z" stroke="black" stroke-width="2" stroke-linecap="round" stroke-linejoin="round"/>
<path d="M122.156 118.663C119.919 124 114.219 127.7 105.044 127.7C95.7814 127.7 90.0064 123.912 87.7939 118.5C90.3689 119.087 106.544 122.45 122.156 118.663Z" stroke="black" stroke-width="2" stroke-linecap="round" stroke-linejoin="round"/>
<path d="M99.6176 101.505C99.1535 100.46 98.3965 99.5726 97.4382 98.9498C96.48 98.3269 95.3616 97.9954 94.2187 97.9954C93.0758 97.9954 91.9574 98.3269 90.9992 98.9498C90.0409 99.5726 89.2839 100.46 88.8198 101.505" stroke="black" stroke-width="2" stroke-miterlimit="10" stroke-linecap="round"/>
<path d="M121.18 101.505C120.716 100.46 119.959 99.5726 119.001 98.9498C118.042 98.3269 116.924 97.9954 115.781 97.9954C114.638 97.9954 113.52 98.3269 112.562 98.9498C111.603 99.5726 110.846 100.46 110.382 101.505" stroke="black" stroke-width="2" stroke-miterlimit="10" stroke-linecap="round"/>
</svg>
