<svg width="26" height="26" viewBox="0 0 26 26" fill="none" xmlns="http://www.w3.org/2000/svg">
<path d="M6.03876 7.5484C5.02702 7.5484 4.1936 8.34394 4.1936 9.30969V17.529C4.1936 18.4948 5.02702 19.2903 6.03876 19.2903H20.8001C21.8118 19.2903 22.6452 18.4948 22.6452 17.529V9.30969C22.6452 8.34394 21.8118 7.5484 20.8001 7.5484H6.03876ZM6.29343 8.7226H20.5442L15.0664 13.9434C14.1482 14.8184 12.6794 14.8183 11.7616 13.9423L6.29343 8.7226ZM21.4151 9.55164V17.2871L17.3572 13.4194L21.4151 9.55164ZM5.42371 9.55279L9.47442 13.4194L5.42371 17.286V9.55279ZM16.4875 14.2484L20.5454 18.1161H6.29343L10.3441 14.2496L10.8919 14.7724C12.2794 16.0968 14.5466 16.0978 15.9349 14.7747L16.4875 14.2484Z" fill="black"/>
</svg>
